<svg version="1.1" xmlns="http://www.w3.org/2000/svg" xmlns:xlink="http://www.w3.org/1999/xlink" x="0px" y="0px"
	 width="60px" height="16px" viewBox="0 0 60 16" enable-background="new 0 0 60 16" xml:space="preserve">
<path fill="#FFFFFF" d="M1.38,7.399h55.689l-5.627-5.626c-0.27-0.27-0.271-0.706,0-0.975c0.268-0.27,0.704-0.27,0.974-0.001
	L59.219,7.6c0.269,0.269,0.269,0.706,0,0.974l-6.803,6.803c-0.273,0.265-0.71,0.258-0.974-0.016c-0.259-0.268-0.259-0.692,0-0.958
	l5.627-5.626H1.38C1,8.777,0.691,8.468,0.691,8.088C0.691,7.707,1,7.398,1.38,7.399L1.38,7.399z"/>
</svg>
