<svg width="187" height="51" viewBox="0 0 187 51" fill="none" xmlns="http://www.w3.org/2000/svg">
<path d="M77.9 10.988C77.9 12.932 77.144 14.417 75.632 15.443C74.12 16.451 71.924 16.955 69.044 16.955H66.749V21.707C66.749 22.391 66.794 22.949 66.884 23.381C66.974 23.795 67.163 24.119 67.451 24.353C67.739 24.587 68.135 24.74 68.639 24.812C69.143 24.884 69.818 24.92 70.664 24.92V26H59.945V24.92C60.539 24.902 61.025 24.848 61.403 24.758C61.781 24.668 62.069 24.515 62.267 24.299C62.465 24.083 62.6 23.777 62.672 23.381C62.744 22.985 62.78 22.472 62.78 21.842V9.368C62.78 8.738 62.744 8.234 62.672 7.856C62.618 7.46 62.501 7.154 62.321 6.938C62.141 6.704 61.88 6.551 61.538 6.479C61.214 6.389 60.782 6.326 60.242 6.29V5.21H69.584C72.32 5.21 74.39 5.696 75.794 6.668C77.198 7.64 77.9 9.08 77.9 10.988ZM66.749 15.335H68.504C70.25 15.335 71.528 14.984 72.338 14.282C73.148 13.58 73.553 12.473 73.553 10.961C73.553 9.611 73.211 8.567 72.527 7.829C71.843 7.091 70.772 6.722 69.314 6.722H67.235C66.911 6.722 66.749 6.875 66.749 7.181V15.335ZM80.3057 26H79.4687V21.086H80.6027C80.9087 22.382 81.3497 23.327 81.9257 23.921C82.5017 24.515 83.2487 24.812 84.1667 24.812C84.8327 24.812 85.3457 24.677 85.7057 24.407C86.0837 24.119 86.2727 23.732 86.2727 23.246C86.2727 22.742 86.0477 22.256 85.5977 21.788C85.1477 21.302 84.4187 20.789 83.4107 20.249C82.0427 19.511 81.0617 18.782 80.4677 18.062C79.8737 17.324 79.5767 16.496 79.5767 15.578C79.5767 14.984 79.6847 14.435 79.9007 13.931C80.1347 13.409 80.4407 12.959 80.8187 12.581C81.2147 12.203 81.6827 11.915 82.2227 11.717C82.7627 11.501 83.3477 11.393 83.9777 11.393C84.5357 11.393 85.0847 11.474 85.6247 11.636C86.1827 11.798 86.6687 12.023 87.0827 12.311L87.5687 11.663H88.2707V15.74H87.2177C86.8037 14.714 86.3717 13.976 85.9217 13.526C85.4897 13.076 84.9587 12.851 84.3287 12.851C83.8247 12.851 83.4197 12.986 83.1137 13.256C82.8257 13.526 82.6817 13.886 82.6817 14.336C82.6817 14.84 82.8977 15.317 83.3297 15.767C83.7797 16.217 84.5177 16.712 85.5437 17.252C86.2637 17.648 86.8847 18.035 87.4067 18.413C87.9287 18.791 88.3517 19.178 88.6757 19.574C88.9997 19.952 89.2337 20.357 89.3777 20.789C89.5397 21.203 89.6207 21.653 89.6207 22.139C89.6207 22.769 89.5037 23.336 89.2697 23.84C89.0357 24.344 88.7027 24.776 88.2707 25.136C87.8387 25.496 87.3167 25.775 86.7047 25.973C86.1107 26.171 85.4447 26.27 84.7067 26.27C83.9327 26.27 83.2127 26.171 82.5467 25.973C81.8807 25.757 81.3317 25.451 80.8997 25.055L80.3057 26ZM98.0205 30.239C97.8225 30.635 97.5705 31.004 97.2645 31.346C96.9765 31.688 96.6435 31.976 96.2655 32.21C95.9055 32.462 95.5275 32.66 95.1315 32.804C94.7355 32.948 94.3395 33.02 93.9435 33.02C93.3495 33.02 92.8725 32.876 92.5125 32.588C92.1525 32.3 91.9725 31.913 91.9725 31.427C91.9725 30.977 92.1255 30.626 92.4315 30.374C92.7555 30.122 93.2685 29.969 93.9705 29.915C95.5725 29.789 96.6075 29.285 97.0755 28.403L97.8045 26.999L93.0255 15.173C92.8095 14.651 92.6205 14.237 92.4585 13.931C92.3145 13.625 92.1525 13.391 91.9725 13.229C91.7925 13.049 91.5855 12.932 91.3515 12.878C91.1175 12.824 90.8295 12.788 90.4875 12.77V11.69H98.6685V12.77C97.9665 12.77 97.4715 12.842 97.1835 12.986C96.9135 13.112 96.7785 13.355 96.7785 13.715C96.7785 13.859 96.7965 14.03 96.8325 14.228C96.8865 14.408 96.9495 14.597 97.0215 14.795L99.7755 22.679H99.8835L102.205 17.414C102.439 16.856 102.637 16.397 102.799 16.037C102.961 15.659 103.078 15.344 103.15 15.092C103.24 14.822 103.303 14.606 103.339 14.444C103.375 14.282 103.393 14.12 103.393 13.958C103.393 13.49 103.258 13.175 102.988 13.013C102.736 12.851 102.214 12.77 101.422 12.77V11.69H107.929V12.77C107.569 12.77 107.263 12.824 107.011 12.932C106.759 13.022 106.498 13.22 106.228 13.526C105.976 13.832 105.688 14.291 105.364 14.903C105.058 15.497 104.671 16.289 104.203 17.279L98.0205 30.239ZM121.482 23.759C120.798 24.515 119.943 25.1 118.917 25.514C117.909 25.928 116.811 26.135 115.623 26.135C114.525 26.135 113.526 25.964 112.626 25.622C111.726 25.262 110.952 24.767 110.304 24.137C109.656 23.507 109.152 22.751 108.792 21.869C108.45 20.969 108.279 19.979 108.279 18.899C108.279 17.783 108.468 16.766 108.846 15.848C109.224 14.93 109.755 14.147 110.439 13.499C111.123 12.833 111.942 12.32 112.896 11.96C113.85 11.6 114.903 11.42 116.055 11.42C116.865 11.42 117.612 11.501 118.296 11.663C118.998 11.825 119.592 12.05 120.078 12.338C120.582 12.626 120.978 12.968 121.266 13.364C121.554 13.742 121.698 14.156 121.698 14.606C121.698 15.128 121.545 15.542 121.239 15.848C120.951 16.154 120.555 16.307 120.051 16.307C119.637 16.307 119.268 16.199 118.944 15.983C118.638 15.767 118.332 15.416 118.026 14.93C117.756 14.498 117.522 14.156 117.324 13.904C117.144 13.652 116.973 13.463 116.811 13.337C116.649 13.193 116.487 13.103 116.325 13.067C116.163 13.013 115.965 12.986 115.731 12.986C114.687 12.986 113.877 13.472 113.301 14.444C112.725 15.416 112.437 16.775 112.437 18.521C112.437 20.393 112.779 21.833 113.463 22.841C114.165 23.849 115.164 24.353 116.46 24.353C117.198 24.353 117.936 24.218 118.674 23.948C119.412 23.66 120.114 23.255 120.78 22.733L121.482 23.759ZM129.054 21.572C129.054 22.31 129.072 22.895 129.108 23.327C129.162 23.741 129.261 24.065 129.405 24.299C129.567 24.533 129.801 24.686 130.107 24.758C130.431 24.83 130.863 24.884 131.403 24.92V26H122.898V24.92C123.438 24.884 123.87 24.83 124.194 24.758C124.518 24.686 124.761 24.542 124.923 24.326C125.085 24.11 125.184 23.804 125.22 23.408C125.274 22.994 125.301 22.445 125.301 21.761V10.664C125.301 9.584 125.283 8.738 125.247 8.126C125.229 7.496 125.184 7.019 125.112 6.695C125.058 6.461 124.995 6.281 124.923 6.155C124.851 6.011 124.734 5.903 124.572 5.831C124.428 5.741 124.221 5.687 123.951 5.669C123.699 5.633 123.375 5.615 122.979 5.615V4.616L129 3.59V13.553H129.108C129.666 12.815 130.287 12.275 130.971 11.933C131.673 11.591 132.51 11.42 133.482 11.42C135.246 11.42 136.614 11.96 137.586 13.04C138.054 13.58 138.423 14.237 138.693 15.011C138.963 15.767 139.098 16.559 139.098 17.387V21.572C139.098 22.328 139.116 22.922 139.152 23.354C139.188 23.768 139.278 24.092 139.422 24.326C139.584 24.542 139.818 24.686 140.124 24.758C140.43 24.83 140.853 24.884 141.393 24.92V26H132.942V24.92C133.482 24.902 133.905 24.857 134.211 24.785C134.535 24.695 134.778 24.542 134.94 24.326C135.12 24.11 135.228 23.804 135.264 23.408C135.318 22.994 135.345 22.445 135.345 21.761V18.44C135.345 16.532 135.138 15.182 134.724 14.39C134.31 13.598 133.599 13.202 132.591 13.202C131.511 13.202 130.656 13.598 130.026 14.39C129.72 14.804 129.477 15.317 129.297 15.929C129.135 16.541 129.054 17.225 129.054 17.981V21.572ZM151.028 18.305C149.516 18.989 148.373 19.628 147.599 20.222C146.843 20.798 146.465 21.401 146.465 22.031C146.465 22.553 146.609 22.967 146.897 23.273C147.185 23.579 147.545 23.732 147.977 23.732C148.409 23.732 148.814 23.66 149.192 23.516C149.57 23.354 149.894 23.147 150.164 22.895C150.434 22.643 150.641 22.346 150.785 22.004C150.947 21.644 151.028 21.266 151.028 20.87V18.305ZM151.028 16.874V15.74C151.028 14.696 150.839 13.94 150.461 13.472C150.101 12.986 149.534 12.743 148.76 12.743C148.238 12.743 147.842 12.887 147.572 13.175C147.302 13.445 147.05 13.904 146.816 14.552C146.654 15.002 146.42 15.353 146.114 15.605C145.826 15.857 145.421 15.983 144.899 15.983C144.395 15.983 144.008 15.83 143.738 15.524C143.468 15.218 143.333 14.786 143.333 14.228C143.333 13.364 143.801 12.68 144.737 12.176C145.691 11.672 147.122 11.42 149.03 11.42C151.046 11.42 152.486 11.789 153.35 12.527C154.214 13.247 154.646 14.462 154.646 16.172V22.085C154.646 23.615 154.952 24.38 155.564 24.38C155.906 24.38 156.221 24.263 156.509 24.029L156.914 24.812C156.662 25.262 156.266 25.622 155.726 25.892C155.204 26.144 154.61 26.27 153.944 26.27C153.116 26.27 152.486 26.018 152.054 25.514C151.622 25.01 151.406 24.299 151.406 23.381H151.271C150.749 24.317 150.074 25.028 149.246 25.514C148.418 26 147.473 26.243 146.411 26.243C145.277 26.243 144.368 25.928 143.684 25.298C143 24.65 142.658 23.813 142.658 22.787C142.658 21.995 143.009 21.257 143.711 20.573C144.413 19.871 145.583 19.187 147.221 18.521L151.028 16.874ZM164.21 21.815C164.21 22.517 164.237 23.075 164.291 23.489C164.363 23.885 164.498 24.191 164.696 24.407C164.894 24.623 165.182 24.767 165.56 24.839C165.938 24.893 166.442 24.92 167.072 24.92V26H158.054V24.92C158.594 24.884 159.026 24.83 159.35 24.758C159.674 24.686 159.917 24.542 160.079 24.326C160.241 24.11 160.34 23.804 160.376 23.408C160.43 22.994 160.457 22.445 160.457 21.761V18.467C160.457 17.351 160.43 16.46 160.376 15.794C160.322 15.128 160.205 14.615 160.025 14.255C159.845 13.895 159.584 13.661 159.242 13.553C158.918 13.427 158.486 13.364 157.946 13.364V12.419L163.346 11.42L163.778 14.525H163.886C164.372 13.571 165.011 12.815 165.803 12.257C166.595 11.699 167.432 11.42 168.314 11.42C168.998 11.42 169.556 11.591 169.988 11.933C170.42 12.275 170.636 12.707 170.636 13.229C170.636 13.805 170.465 14.291 170.123 14.687C169.799 15.083 169.349 15.281 168.773 15.281C168.503 15.281 168.26 15.227 168.044 15.119C167.828 15.011 167.63 14.894 167.45 14.768C167.288 14.624 167.117 14.498 166.937 14.39C166.775 14.264 166.604 14.201 166.424 14.201C166.082 14.201 165.758 14.426 165.452 14.876C165.146 15.326 164.894 15.929 164.696 16.685C164.552 17.225 164.435 17.837 164.345 18.521C164.255 19.187 164.21 19.853 164.21 20.519V21.815ZM185.113 23.489C183.475 25.343 181.432 26.27 178.984 26.27C177.868 26.27 176.851 26.099 175.933 25.757C175.033 25.397 174.259 24.902 173.611 24.272C172.963 23.624 172.459 22.859 172.099 21.977C171.739 21.095 171.559 20.114 171.559 19.034C171.559 17.918 171.748 16.901 172.126 15.983C172.504 15.047 173.035 14.246 173.719 13.58C174.421 12.896 175.24 12.365 176.176 11.987C177.13 11.609 178.174 11.42 179.308 11.42C181.216 11.42 182.701 11.933 183.763 12.959C184.825 13.985 185.356 15.425 185.356 17.279C185.356 17.567 185.311 17.747 185.221 17.819C185.131 17.873 184.879 17.9 184.465 17.9H175.771C175.699 18.062 175.663 18.359 175.663 18.791C175.663 20.555 176.041 21.95 176.797 22.976C177.571 24.002 178.615 24.515 179.929 24.515C180.685 24.515 181.432 24.344 182.17 24.002C182.926 23.66 183.655 23.174 184.357 22.544L185.113 23.489ZM179.875 16.388C180.595 16.388 181.054 16.352 181.252 16.28C181.468 16.19 181.576 15.992 181.576 15.686C181.576 14.894 181.351 14.246 180.901 13.742C180.451 13.238 179.884 12.986 179.2 12.986C178.426 12.986 177.733 13.31 177.121 13.958C176.527 14.588 176.14 15.398 175.96 16.388H179.875Z" fill="#1F1F1F"/>
<path d="M101.803 45V37.168H103.167L105.994 43.625H105.389L108.205 37.168H109.558V45H108.04L108.029 39.709L108.425 39.808L106.236 45H105.125L102.892 39.808L103.31 39.709V45H101.803ZM112.017 45V37.168H113.733V45H112.017ZM116.185 45V37.168H117.45L121.674 42.558L121.355 42.767V37.168H122.972V45H121.696L117.494 39.632L117.791 39.401V45H116.185ZM125.422 45V37.168H128.458C129.316 37.168 130.049 37.322 130.658 37.63C131.274 37.938 131.743 38.3853 132.066 38.972C132.396 39.5513 132.561 40.2517 132.561 41.073C132.561 41.9017 132.4 42.6093 132.077 43.196C131.754 43.7753 131.285 44.2227 130.669 44.538C130.06 44.846 129.323 45 128.458 45H125.422ZM127.138 43.614H128.337C129.173 43.614 129.8 43.405 130.218 42.987C130.636 42.5617 130.845 41.9237 130.845 41.073C130.845 39.3937 130.009 38.554 128.337 38.554H127.138V43.614ZM144.075 45V37.168H145.758V45H144.075ZM138.762 45V37.168H140.445V45H138.762ZM139.312 41.7V40.347H145.087V41.7H139.312ZM148.214 45V37.168H153.615V38.499H149.897V40.347H153.384V41.689H149.897V43.669H153.615V45H148.214ZM156.397 45H154.67L158.267 37.168H159.653L163.25 45H161.545L158.773 38.532H159.191L156.397 45ZM156.298 43.262L156.958 41.953H160.874L161.523 43.262H156.298ZM164.799 45V37.168H166.515V43.603H170.013V45H164.799ZM172.359 45V38.565H169.906V37.168H176.55V38.565H174.097V45H172.359ZM183.656 45V37.168H185.339V45H183.656ZM178.343 45V37.168H180.026V45H178.343ZM178.893 41.7V40.347H184.668V41.7H178.893Z" fill="#7F7F7F"/>
<circle cx="25" cy="24" r="24" fill="url(#paint0_linear)"/>
<path d="M47.491 24.744C44.9761 24.654 42.5084 24.97 40.1596 25.6636C39.998 23.1571 39.4453 20.7001 38.5064 18.3321C38.1669 17.4757 37.2103 17.0624 36.3707 17.4082C34.1628 18.3174 32.1379 19.5393 30.327 21.0518C29.2385 18.9367 27.843 17.0056 26.1601 15.2904C25.8524 14.9768 25.4351 14.8005 25 14.8005C24.5649 14.8005 24.1475 14.9768 23.84 15.2904C22.157 17.0057 20.7613 18.9369 19.6728 21.0523C17.8607 19.539 15.8357 18.3172 13.6282 17.4082C12.7877 17.0621 11.8318 17.4759 11.4924 18.3321C10.5537 20.7001 10.001 23.1573 9.83932 25.6635C7.49087 24.9702 5.02343 24.6541 2.5083 24.7439C1.60276 24.7761 0.894212 25.5504 0.925823 26.4734C1.14337 32.8212 3.77314 38.7029 8.331 43.0349C10.0638 44.6818 11.9967 46.0286 14.0688 47.0546C16.5 46.5 18 48 19.5 48.5C20 48.5 20.0948 48.9674 21 49C21.1649 49.0059 22.3155 49.5 22.5 49.5C24.6973 49.5 22.5 49.5 25 49.5C27.1912 49.5 26.5 49.5 28.5 49.5C29.217 49.5 29.0649 49.5 29.5 49.5C29.9351 49.5 30.5 49 31 49C32.5 49 31 48.5 32.5 48.5C34.5 48.5 31.3026 48 33.5 48C33.6846 48 31 45 33 48.5C33.9052 48.4674 33.5 48 34.5 47.5C34.5 47 35.5 47.5 35.9309 47.0542C38.0028 46.0281 39.9357 44.6814 41.6682 43.0349C46.2259 38.7029 48.8557 32.8213 49.0732 26.4734C49.105 25.5505 48.3966 24.7762 47.491 24.744ZM36.9257 26.8924C34.6931 27.9416 32.6153 29.3593 30.7652 31.1178C29.6335 32.1935 28.6208 33.3649 27.7342 34.6152C27.4975 33.4604 27.176 32.3222 26.7695 31.2054C27.774 28.8798 29.1731 26.7935 30.9371 24.9966C32.436 23.4669 34.1471 22.2047 36.0394 21.2303C36.5993 23.0732 36.8954 24.9686 36.9257 26.8924ZM25 18.9409C26.1428 20.3195 27.0921 21.8339 27.8377 23.4649C26.7568 24.677 25.8089 25.9909 24.9997 27.3967C24.1902 25.9902 23.2424 24.6763 22.1623 23.4651C22.908 21.8339 23.8572 20.3194 25 18.9409ZM13.9596 21.2303C15.8519 22.2045 17.5633 23.4669 19.0642 24.9975C20.9749 26.9438 22.4603 29.2333 23.479 31.8025C24.4514 34.2537 24.9443 36.8315 24.9443 39.464C24.9443 39.4918 24.9441 39.5177 24.944 39.5447C23.6846 36.3841 21.755 33.5136 19.2342 31.1178C17.3838 29.3592 15.3058 27.9412 13.0733 26.8922C13.1036 24.9685 13.3997 23.0732 13.9596 21.2303ZM4.33752 28.0993C14.0523 28.5937 22.0662 36.2104 23.2278 46.0534C13.513 45.559 5.49911 37.9423 4.33752 28.0993ZM26.7708 46.0535C27.3307 41.2704 29.5068 36.8868 33.0031 33.5638C36.4993 30.2408 40.9416 28.3341 45.662 28.0984C44.5004 37.9421 36.4865 45.56 26.7708 46.0535Z" fill="white"/>
<path d="M2.50037 28C1.50002 48 38.5 63 47.5004 28.5" stroke="white" stroke-width="2"/>
<path d="M25 11.3455C25.4321 11.3455 25.8543 11.1661 26.1604 10.855C26.4656 10.544 26.6407 10.1126 26.6407 9.67221C26.6407 9.23298 26.4656 8.80155 26.1604 8.49052C25.8542 8.17837 25.4321 8 25 8C24.568 8 24.1457 8.17837 23.8395 8.49052C23.5344 8.80155 23.3594 9.23298 23.3594 9.67221C23.3594 10.1126 23.5344 10.544 23.8395 10.855C24.1458 11.1661 24.568 11.3455 25 11.3455Z" fill="white"/>
<path d="M13.0137 14.6889C13.4456 14.6889 13.8689 14.5105 14.1741 14.1995C14.4793 13.8885 14.6544 13.457 14.6544 13.0167C14.6544 12.5763 14.4793 12.146 14.1741 11.835C13.8689 11.524 13.4456 11.3445 13.0137 11.3445C12.5817 11.3445 12.1594 11.524 11.8532 11.835C11.5481 12.146 11.373 12.5763 11.373 13.0167C11.373 13.457 11.5481 13.8885 11.8532 14.1995C12.1594 14.5105 12.5816 14.6889 13.0137 14.6889Z" fill="white"/>
<path d="M36.9854 14.6889C37.4162 14.6889 37.8396 14.5105 38.1448 14.1995C38.451 13.8885 38.626 13.457 38.626 13.0167C38.626 12.5763 38.4509 12.146 38.1448 11.835C37.8396 11.524 37.4175 11.3445 36.9854 11.3445C36.5532 11.3445 36.1301 11.524 35.8249 11.835C35.5197 12.146 35.3447 12.5775 35.3447 13.0167C35.3447 13.457 35.5197 13.8885 35.8249 14.1995C36.1301 14.5105 36.5533 14.6889 36.9854 14.6889Z" fill="white"/>
<defs>
<linearGradient id="paint0_linear" x1="4.5" y1="9.5" x2="44.5" y2="39" gradientUnits="userSpaceOnUse">
<stop stop-color="#6D3E28"/>
<stop offset="0.703717" stop-color="#97644C"/>
</linearGradient>
</defs>
</svg>
